<svg width="234" height="63" viewBox="0 0 234 63" fill="none" xmlns="http://www.w3.org/2000/svg">
<path d="M93.5704 27.4188C93.5704 29.3259 93.1292 31.0623 92.2468 32.6278C91.3644 34.1649 90.0551 35.3889 88.3187 36.2998C86.6108 37.2106 84.5329 37.6661 82.085 37.6661H78.3276V47.2729H68.8489V17.0434H82.085C85.7854 17.0434 88.6176 17.9827 90.5817 19.8614C92.5742 21.7401 93.5704 24.2592 93.5704 27.4188ZM81.0175 30.1941C82.9816 30.1941 83.9636 29.269 83.9636 27.4188C83.9636 25.5686 82.9816 24.6435 81.0175 24.6435H78.3276V30.1941H81.0175Z" fill="white"/>
<path d="M106.056 15.6771V47.2729H96.5769V15.6771H106.056Z" fill="white"/>
<path d="M135.827 23.1918V47.2729H126.348V43.6009C125.608 44.7395 124.612 45.6646 123.359 46.3762C122.135 47.0879 120.669 47.4437 118.962 47.4437C116.2 47.4437 114.037 46.5186 112.472 44.6684C110.934 42.8182 110.166 40.3133 110.166 37.1537V23.1918H119.602V35.9582C119.602 37.0968 119.901 38.0076 120.499 38.6908C121.125 39.3455 121.95 39.6728 122.975 39.6728C124.028 39.6728 124.854 39.3455 125.451 38.6908C126.049 38.0076 126.348 37.0968 126.348 35.9582V23.1918H135.827Z" fill="white"/>
<path d="M151.551 47.5718C149.131 47.5718 146.954 47.0736 145.018 46.0774C143.082 45.0811 141.56 43.6579 140.449 41.8077C139.368 39.929 138.827 37.7372 138.827 35.2323C138.827 32.7274 139.368 30.5499 140.449 28.6997C141.56 26.821 143.082 25.3835 145.018 24.3873C146.954 23.391 149.131 22.8929 151.551 22.8929C153.97 22.8929 156.148 23.391 158.083 24.3873C160.019 25.3835 161.528 26.821 162.609 28.6997C163.719 30.5499 164.274 32.7274 164.274 35.2323C164.274 37.7372 163.719 39.929 162.609 41.8077C161.528 43.6579 160.019 45.0811 158.083 46.0774C156.148 47.0736 153.97 47.5718 151.551 47.5718ZM151.551 39.3739C152.433 39.3739 153.173 39.0324 153.771 38.3492C154.369 37.6376 154.668 36.5986 154.668 35.2323C154.668 33.866 154.369 32.8413 153.771 32.1581C153.173 31.4465 152.433 31.0907 151.551 31.0907C150.668 31.0907 149.928 31.4465 149.33 32.1581C148.733 32.8413 148.434 33.866 148.434 35.2323C148.434 36.5986 148.718 37.6376 149.288 38.3492C149.885 39.0324 150.64 39.3739 151.551 39.3739Z" fill="white"/>
<path d="M182.239 39.2031V47.2729H178.652C172.048 47.2729 168.747 43.9852 168.747 37.4099V31.0907H165.758V23.1918H168.747V17.385H178.225V23.1918H182.153V31.0907H178.225V37.5807C178.225 38.15 178.353 38.5627 178.61 38.8189C178.894 39.0751 179.35 39.2031 179.976 39.2031H182.239Z" fill="white"/>
<path d="M197.292 47.5718C194.872 47.5718 192.694 47.0736 190.759 46.0774C188.823 45.0811 187.3 43.6579 186.19 41.8077C185.109 39.929 184.568 37.7372 184.568 35.2323C184.568 32.7274 185.109 30.5499 186.19 28.6997C187.3 26.821 188.823 25.3835 190.759 24.3873C192.694 23.391 194.872 22.8929 197.292 22.8929C199.711 22.8929 201.889 23.391 203.824 24.3873C205.76 25.3835 207.268 26.821 208.35 28.6997C209.46 30.5499 210.015 32.7274 210.015 35.2323C210.015 37.7372 209.46 39.929 208.35 41.8077C207.268 43.6579 205.76 45.0811 203.824 46.0774C201.889 47.0736 199.711 47.5718 197.292 47.5718ZM197.292 39.3739C198.174 39.3739 198.914 39.0324 199.512 38.3492C200.11 37.6376 200.408 36.5986 200.408 35.2323C200.408 33.866 200.11 32.8413 199.512 32.1581C198.914 31.4465 198.174 31.0907 197.292 31.0907C196.409 31.0907 195.669 31.4465 195.071 32.1581C194.474 32.8413 194.175 33.866 194.175 35.2323C194.175 36.5986 194.459 37.6376 195.029 38.3492C195.626 39.0324 196.381 39.3739 197.292 39.3739Z" fill="white"/>
<path d="M223.71 47.5718C221.433 47.5718 219.412 47.2017 217.647 46.4616C215.911 45.7216 214.53 44.6968 213.505 43.3875C212.481 42.0781 211.897 40.5979 211.755 38.947H220.849C220.963 39.6586 221.262 40.1852 221.746 40.5268C222.258 40.8683 222.899 41.0391 223.667 41.0391C224.151 41.0391 224.535 40.9395 224.82 40.7402C225.105 40.5125 225.247 40.2421 225.247 39.929C225.247 39.3882 224.948 39.0039 224.35 38.7762C223.753 38.5485 222.742 38.2923 221.319 38.0076C219.583 37.6661 218.145 37.296 217.007 36.8975C215.896 36.499 214.914 35.8159 214.06 34.8481C213.235 33.8803 212.822 32.5424 212.822 30.8345C212.822 29.3544 213.206 28.0165 213.975 26.821C214.772 25.597 215.939 24.6435 217.476 23.9603C219.013 23.2487 220.878 22.8929 223.07 22.8929C226.314 22.8929 228.848 23.6899 230.67 25.2839C232.52 26.8779 233.63 28.9559 234 31.5177H225.589C225.446 30.863 225.147 30.3649 224.692 30.0233C224.237 29.6532 223.625 29.4682 222.856 29.4682C222.372 29.4682 222.002 29.5679 221.746 29.7671C221.49 29.9379 221.362 30.2083 221.362 30.5784C221.362 31.0623 221.661 31.4323 222.258 31.6885C222.856 31.9162 223.81 32.1581 225.119 32.4143C226.855 32.7559 228.321 33.1402 229.517 33.5671C230.712 33.9941 231.751 34.7342 232.634 35.7874C233.516 36.8121 233.957 38.2353 233.957 40.0571C233.957 41.4803 233.545 42.7612 232.719 43.8998C231.894 45.0384 230.698 45.935 229.132 46.5897C227.595 47.2444 225.788 47.5718 223.71 47.5718Z" fill="white"/>
<path d="M33.6204 1L13.2761 14.2474L29.3337 22.7636L27.4412 26.5486L27.6452 29.7335L28.3875 32.6992L30.7531 36.4842L33.5918 39.3229L37.3768 35.0648L39.7424 30.8067V27.4949L38.7962 23.7099L38.323 22.7636L53.9647 14.2474L33.6204 1Z" fill="#E3C6FF"/>
<path d="M33.7594 39.0976L33.7379 57.1135C39.7179 54.0103 52.2331 47.0318 54.4534 43.9431C56.6736 40.8545 55.1536 22.8591 54.1161 14.2474L38.1149 23.0375C42.4504 29.9111 37.0177 36.6082 33.7594 39.0976Z" fill="#764FAF" stroke="#351F5D" stroke-linejoin="round"/>
<path d="M33.4772 39.122L33.4987 57.138C27.5187 54.0348 15.0035 47.0562 12.7832 43.9676C10.5629 40.8789 12.0829 22.8835 13.1205 14.2718L29.1217 23.0619C24.7862 29.9355 30.2189 36.6326 33.4772 39.122Z" fill="#764FAF" stroke="#351F5D" stroke-linejoin="round"/>
<path d="M13.2476 14.2474L33.5918 1L53.9361 14.2474" stroke="#351F5D"/>
</svg>
